<svg width="20" height="20" viewBox="0 0 20 20" fill="none" xmlns="http://www.w3.org/2000/svg">
<path d="M19.7009 12.4183C18.3647 17.7783 12.9343 21.0365 7.5819 19.7004C2.22174 18.3643 -1.03655 12.934 0.299583 7.58173C1.63572 2.22169 7.05839 -1.03653 12.4186 0.299576C17.7709 1.62787 21.037 7.05823 19.7009 12.4183Z" fill="url(#paint0_linear_1_2292)"/>
<path d="M14.7607 8.75391C14.9561 7.42578 13.9482 6.70703 12.5576 6.23047L13.0107 4.42578L11.917 4.15234L11.4795 5.91016C11.1904 5.83984 10.8936 5.76953 10.5967 5.70703L11.0342 3.94141L9.94043 3.66797L9.49512 5.46484C9.25293 5.41016 9.01855 5.35547 8.79199 5.30078V5.29297L7.27637 4.91797L6.9873 6.08984C6.9873 6.08984 7.7998 6.27734 7.78418 6.28516C8.22949 6.39453 8.30762 6.69141 8.29199 6.92578L7.77637 8.98047C7.80762 8.98828 7.84668 8.99609 7.89355 9.01953C7.85449 9.01172 7.81543 9.00391 7.77637 8.98828L7.05762 11.8633C7.00293 11.9961 6.8623 12.1992 6.55762 12.1211C6.56543 12.1367 5.76074 11.9258 5.76074 11.9258L5.21387 13.1836L6.64355 13.543C6.90918 13.6133 7.16699 13.6758 7.4248 13.7461L6.97168 15.5664L8.06543 15.8398L8.51855 14.0352C8.81543 14.1133 9.1123 14.1914 9.39355 14.2617L8.94824 16.0586L10.042 16.332L10.4951 14.5117C12.3701 14.8633 13.7764 14.7227 14.3623 13.0273C14.8389 11.668 14.3389 10.8789 13.3545 10.3633C14.0811 10.1992 14.6201 9.72266 14.7607 8.75391ZM12.2529 12.2695C11.917 13.6289 9.62012 12.8945 8.87793 12.707L9.47949 10.293C10.2217 10.4805 12.6123 10.8477 12.2529 12.2695ZM12.5967 8.73047C12.2842 9.97266 10.3779 9.33984 9.76074 9.18359L10.3076 6.99609C10.9248 7.15234 12.917 7.44141 12.5967 8.73047Z" fill="white"/>
<defs>
<linearGradient id="paint0_linear_1_2292" x1="9.99466" y1="-0.0047105" x2="9.99466" y2="19.998" gradientUnits="userSpaceOnUse">
<stop stop-color="#F9AA4B"/>
<stop offset="1" stop-color="#F7931A"/>
</linearGradient>
</defs>
</svg>
