<svg width="36" height="36" viewBox="0 0 36 36" fill="none" xmlns="http://www.w3.org/2000/svg">
<path d="M14.985 26.97C21.6041 26.97 26.97 21.6041 26.97 14.985C26.97 8.36587 21.6041 3 14.985 3C8.36587 3 3 8.36587 3 14.985C3 21.6041 8.36587 26.97 14.985 26.97Z" fill="#05422C" stroke="#05422C" stroke-width="1.5" stroke-linecap="round" stroke-linejoin="round"/>
<path d="M19.4707 29.82C20.8207 31.725 23.0257 32.97 25.5457 32.97C29.6407 32.97 32.9707 29.64 32.9707 25.545C32.9707 23.055 31.7407 20.85 29.8657 19.5" stroke="#C3D2CC" stroke-width="1.5" stroke-linecap="round" stroke-linejoin="round"/>
<path d="M12 17.0998C12 18.2548 12.9 19.1998 13.995 19.1998H16.245C17.205 19.1998 17.985 18.3748 17.985 17.3698C17.985 16.2748 17.505 15.8848 16.8 15.6298L13.2 14.3698C12.48 14.1148 12 13.7248 12 12.6298C12 11.6248 12.78 10.7998 13.74 10.7998H15.99C17.1 10.8148 18 11.7448 18 12.8998" stroke="white" stroke-width="1.5" stroke-linecap="round" stroke-linejoin="round"/>
<path d="M15 19.2749V20.3849" stroke="white" stroke-width="1.5" stroke-linecap="round" stroke-linejoin="round"/>
<path d="M15 9.61523V10.7852" stroke="white" stroke-width="1.5" stroke-linecap="round" stroke-linejoin="round"/>
</svg>
