<svg width="20" height="20" viewBox="0 0 20 20" fill="none" xmlns="http://www.w3.org/2000/svg">
<mask id="mask0_1_2296" style="mask-type:luminance" maskUnits="userSpaceOnUse" x="0" y="0" width="20" height="20">
<path d="M0 0H19.9997V20H0V0Z" fill="white"/>
</mask>
<g mask="url(#mask0_1_2296)">
<path d="M1.9507 0.34082H18.0491C18.2606 0.340805 18.4699 0.382434 18.6653 0.46333C18.8606 0.544226 19.0381 0.662804 19.1876 0.812295C19.3371 0.961786 19.4557 1.13926 19.5367 1.33459C19.6176 1.52992 19.6592 1.73927 19.6592 1.9507V18.0495C19.6592 18.2609 19.6176 18.4702 19.5367 18.6656C19.4557 18.8609 19.3371 19.0383 19.1876 19.1878C19.0381 19.3373 18.8607 19.4559 18.6653 19.5367C18.47 19.6176 18.2607 19.6593 18.0493 19.6592H1.95047C1.52358 19.6592 1.11418 19.4897 0.812316 19.1878C0.510452 18.886 0.340851 18.4766 0.34082 18.0497V1.95058C0.340851 1.52364 0.510476 1.11419 0.812383 0.812302C1.11429 0.510416 1.52375 0.34082 1.9507 0.34082Z" fill="#FDB913"/>
<path d="M18.0493 0.340728C18.4762 0.34085 18.8856 0.510523 19.1875 0.812439C19.4893 1.11436 19.6589 1.52379 19.6589 1.95072V18.0494C19.6589 18.4763 19.4893 18.8857 19.1875 19.1876C18.8856 19.4895 18.4762 19.6592 18.0493 19.6593H1.95061C1.73918 19.6593 1.52982 19.6177 1.33448 19.5368C1.13914 19.4559 0.96165 19.3373 0.812149 19.1878C0.662649 19.0383 0.544068 18.8609 0.46318 18.6655C0.382292 18.4702 0.340683 18.2608 0.340728 18.0494V1.95072C0.340683 1.73929 0.382292 1.52992 0.463178 1.33458C0.544065 1.13923 0.662644 0.961733 0.812142 0.812224C0.961641 0.662714 1.13913 0.544123 1.33447 0.463222C1.52981 0.382322 1.73918 0.340698 1.95061 0.340728H18.0493ZM18.0493 0H1.95061C1.43342 0.000546867 0.937577 0.206248 0.571883 0.571964C0.206188 0.93768 0.00051644 1.43354 0 1.95072L0 18.0494C0.000577133 18.5665 0.206272 19.0624 0.571957 19.428C0.937641 19.7937 1.43345 19.9994 1.95061 20H18.0493C18.5664 19.9994 19.0622 19.7937 19.4278 19.428C19.7935 19.0623 19.9991 18.5665 19.9997 18.0494V1.95072C19.9992 1.43357 19.7935 0.937727 19.4279 0.572011C19.0622 0.206295 18.5664 0.000577293 18.0493 0Z" fill="white"/>
<path d="M11.1271 10.2084L11.1255 6.74961L12.0283 6.53535V6.98889C12.0283 6.98889 12.2622 6.39259 12.8049 6.25419C12.886 6.22807 12.9722 6.22228 13.056 6.23732V7.11983C12.8935 7.12196 12.7329 7.15539 12.583 7.2183C12.2494 7.35005 12.0815 7.63753 12.0815 8.07637L12.082 9.98624L11.1271 10.2084ZM6.36783 11.3332C6.36783 11.3332 6.22093 11.1131 6.22093 10.3348V8.61277L5.75649 8.72329V8.01371L6.22208 7.90377V7.13028L7.18206 6.90362V7.677L7.8603 7.51588V8.22453L7.18206 8.38554C7.18206 8.38554 7.18091 9.79654 7.18206 10.1391C7.18206 10.9366 7.39368 11.0897 7.39368 11.0897L6.36783 11.3332ZM7.96072 9.27552C7.96072 8.66063 8.04828 8.21202 8.23626 7.86774C8.46005 7.45919 8.82671 7.19294 9.36104 7.07129C10.4142 6.83178 10.7944 7.45517 10.7796 8.29109C10.774 8.59005 10.7754 8.73568 10.7754 8.73568L8.9199 9.17178V9.20161C8.9199 9.78575 9.04235 10.0629 9.41246 9.98429C9.73218 9.91692 9.82112 9.71667 9.84637 9.46901C9.8505 9.42907 9.85245 9.32751 9.85245 9.32751L10.7217 9.11921C10.7217 9.11921 10.7237 9.19037 10.7225 9.27024C10.7149 9.60213 10.6184 10.4254 9.41028 10.7111C8.26587 10.9827 7.96083 10.2838 7.96083 9.27541M9.3996 7.71556C9.09216 7.78534 8.93092 8.08693 8.92392 8.58661L9.85728 8.36431C9.85888 8.3417 9.85911 8.2919 9.85888 8.21386C9.85728 7.83664 9.74068 7.63753 9.3996 7.71556ZM16.3054 7.25284C16.2694 6.19944 16.5426 5.3634 17.7179 5.09716C18.4669 4.92697 18.7514 5.12183 18.8955 5.31016C19.034 5.48987 19.0875 5.73225 19.0875 6.07171L19.0883 6.13403L18.1688 6.35254L18.1681 6.22458C18.1688 5.82199 18.0569 5.6689 17.7645 5.74212C17.4167 5.82945 17.2763 6.15951 17.2763 6.81572C17.2763 7.04868 17.2774 7.09046 17.2774 7.1219C17.2774 7.78878 17.3684 8.09405 17.7692 8.01016C18.1169 7.93832 18.1644 7.63305 18.17 7.36542C18.1707 7.32342 18.1725 7.18892 18.1725 7.18892L19.0906 6.97202C19.0906 6.97202 19.0915 7.03985 19.0915 7.11524C19.0892 7.98973 18.6283 8.54082 17.7648 8.74176C16.5752 9.02063 16.3422 8.33321 16.3053 7.25284M13.1268 8.72765C13.1268 7.92638 13.5962 7.67299 14.3027 7.38069C14.938 7.11788 14.9518 6.9874 14.9544 6.75902C14.9579 6.5668 14.8688 6.40234 14.5525 6.48302C14.4471 6.50427 14.3519 6.56053 14.2824 6.64266C14.2129 6.7248 14.1732 6.828 14.1697 6.93553C14.1645 6.99456 14.1625 7.05382 14.1637 7.11306L13.2729 7.32342C13.2669 7.1459 13.2877 6.96848 13.3344 6.79712C13.4767 6.31799 13.8994 5.99563 14.6288 5.82681C15.5765 5.60842 15.8924 6.02432 15.8935 6.67123V8.20319C15.8935 8.94409 16.0311 9.05265 16.0311 9.05265L15.1566 9.25957C15.1084 9.15852 15.0692 9.05341 15.0395 8.94547C15.0395 8.94547 14.8478 9.42792 14.1876 9.58308C13.4941 9.74662 13.1268 9.31683 13.1268 8.72765ZM14.9483 7.63351C14.8009 7.73685 14.6453 7.82797 14.4831 7.90595C14.1916 8.04837 14.0599 8.22407 14.0599 8.49468C14.0599 8.72902 14.205 8.88292 14.4689 8.81774C14.7519 8.74635 14.9483 8.48229 14.9483 8.11539V7.63351ZM1.34838 13.7578C1.24857 13.7577 1.15064 13.7306 1.06489 13.6795C0.979153 13.6284 0.908774 13.5552 0.861165 13.4675C0.813557 13.3797 0.79048 13.2808 0.794366 13.1811C0.798252 13.0813 0.828956 12.9845 0.883246 12.9007L0.889443 12.8927L0.899771 12.8899L2.20565 12.5817V13.5734L2.18533 13.5781C1.94476 13.636 1.70371 13.692 1.46222 13.746C1.42479 13.7539 1.38663 13.7578 1.34838 13.7578ZM1.34838 15.0264C1.20145 15.0264 1.06051 14.9681 0.956555 14.8642C0.852595 14.7604 0.794113 14.6196 0.793961 14.4726C0.793661 14.3656 0.824698 14.2608 0.883246 14.1711L0.889443 14.162L0.899771 14.1592L2.20565 13.8511V14.8427L2.18533 14.848C1.88913 14.9192 1.53509 15.0011 1.46222 15.0157C1.42471 15.0229 1.38658 15.0265 1.34838 15.0264ZM1.34838 16.2975C1.20138 16.2974 1.06044 16.2389 0.956486 16.135C0.852536 16.0311 0.794082 15.8901 0.793961 15.7432C0.793569 15.6361 0.824615 15.5313 0.883246 15.4418L0.889443 15.4318L2.20565 15.1216V16.1131L2.18533 16.1185C1.87249 16.1938 1.52511 16.2723 1.46222 16.2861C1.42474 16.2936 1.38661 16.2974 1.34838 16.2975ZM2.20553 6.75501V12.3035L1.19425 12.5427L1.19391 6.99406L2.20553 6.75501ZM3.71396 12.0705C3.71508 11.9879 3.69977 11.9058 3.6689 11.8291C3.63804 11.7524 3.59225 11.6826 3.53418 11.6237C3.47611 11.5649 3.40693 11.5181 3.33065 11.4862C3.25437 11.4543 3.17251 11.4379 3.08983 11.4379C3.00715 11.4379 2.92529 11.4543 2.84901 11.4862C2.77273 11.5181 2.70354 11.5649 2.64548 11.6237C2.58741 11.6826 2.54162 11.7524 2.51075 11.8291C2.47989 11.9058 2.46458 11.9879 2.4657 12.0705L2.46684 17.2566C2.46739 17.7045 2.64544 18.1338 2.96198 18.4506C3.27853 18.7674 3.70774 18.9457 4.15556 18.9466C4.62804 18.9466 5.92232 18.9443 5.92232 18.9443L5.9229 16.7808L5.92347 14.3682C5.92362 14.2337 5.89056 14.1012 5.82724 13.9826C5.76392 13.8639 5.67229 13.7627 5.56048 13.688L3.98595 12.6184L3.98549 15.0471C3.98549 15.0648 3.98201 15.0822 3.97527 15.0985C3.96852 15.1148 3.95863 15.1296 3.94616 15.1421C3.93369 15.1545 3.91889 15.1644 3.9026 15.1712C3.88631 15.1779 3.86885 15.1814 3.85122 15.1814C3.83358 15.1814 3.81612 15.1779 3.79983 15.1712C3.78354 15.1644 3.76874 15.1545 3.75627 15.1421C3.7438 15.1296 3.73391 15.1148 3.72717 15.0985C3.72042 15.0822 3.71694 15.0648 3.71694 15.0471C3.71694 15.0211 3.71396 12.3913 3.71396 12.0705ZM4.55689 8.20135C4.36554 8.24575 4.18604 8.33094 4.03064 8.45108C3.87524 8.57122 3.74761 8.7235 3.65646 8.89749V8.50753L2.7456 8.72306L2.74675 11.2134C2.90651 11.1502 3.08063 11.1325 3.24986 11.162C3.41909 11.1916 3.57684 11.2674 3.7057 11.3811V9.77324C3.7057 9.38799 3.89735 9.08031 4.17117 9.01995C4.37717 8.97473 4.5492 9.04841 4.5492 9.4153L4.54989 11.7613L5.50929 11.5363V9.0546C5.50929 8.45291 5.27759 8.03231 4.55689 8.20135ZM18.4965 4.65005C18.3792 4.65016 18.2645 4.61546 18.1668 4.55034C18.0692 4.48522 17.9931 4.3926 17.9481 4.28421C17.9032 4.17582 17.8914 4.05653 17.9142 3.94143C17.9371 3.82634 17.9936 3.7206 18.0766 3.63762C18.1595 3.55464 18.2652 3.49813 18.3803 3.47525C18.4954 3.45237 18.6147 3.46415 18.7231 3.50909C18.8315 3.55403 18.9241 3.63012 18.9893 3.72773C19.0544 3.82533 19.0891 3.94007 19.0891 4.05742C19.0889 4.21453 19.0264 4.36518 18.9154 4.4763C18.8043 4.58742 18.6537 4.64983 18.4965 4.65005ZM18.4965 3.53869C18.394 3.53867 18.2937 3.56906 18.2084 3.62603C18.1231 3.683 18.0566 3.76398 18.0173 3.85873C17.9781 3.95349 17.9678 4.05776 17.9878 4.15836C18.0078 4.25897 18.0571 4.35139 18.1296 4.42393C18.2021 4.49648 18.2945 4.54589 18.3951 4.56592C18.4957 4.58595 18.6 4.57571 18.6948 4.53648C18.7896 4.49725 18.8706 4.43079 18.9276 4.34552C18.9846 4.26025 19.015 4.15999 19.015 4.05742C19.0149 3.91992 18.9603 3.78808 18.8631 3.69084C18.7659 3.59359 18.634 3.53887 18.4965 3.53869Z" fill="#231F20"/>
<path d="M18.2803 3.70408H18.5358C18.5608 3.7014 18.5861 3.70439 18.6097 3.71282C18.6334 3.72124 18.6549 3.7349 18.6725 3.75276C18.6902 3.77063 18.7036 3.79224 18.7117 3.816C18.7199 3.83976 18.7226 3.86505 18.7196 3.88999C18.7196 3.98398 18.6779 4.05617 18.5991 4.06845V4.06982C18.6708 4.07717 18.7086 4.11676 18.7122 4.21855C18.7136 4.26446 18.7143 4.32138 18.7165 4.36568C18.7165 4.37815 18.7197 4.39041 18.7257 4.40134C18.7317 4.41226 18.7404 4.42151 18.7509 4.42822H18.6202C18.6077 4.40908 18.601 4.3868 18.6007 4.36396C18.5967 4.32069 18.5977 4.27984 18.5958 4.22728C18.5938 4.14832 18.5696 4.11366 18.4903 4.11366H18.3957V4.42811H18.2803V3.70408ZM18.4882 4.02656C18.5039 4.02799 18.5197 4.02592 18.5345 4.0205C18.5493 4.01508 18.5627 4.00644 18.5738 3.99521C18.5848 3.98398 18.5933 3.97043 18.5985 3.95555C18.6036 3.94067 18.6055 3.92483 18.6038 3.90916C18.6038 3.83192 18.5705 3.7913 18.4943 3.7913H18.3957V4.02656H18.4882Z" fill="#231F20"/>
</g>
</svg>
