<svg width="38" height="14" viewBox="0 0 38 14" fill="none" xmlns="http://www.w3.org/2000/svg">
<path d="M19.6035 5.06408C19.5835 6.55974 21.0126 7.39443 22.0892 7.89066C23.1954 8.39986 23.5669 8.72635 23.5627 9.18164C23.5543 9.87855 22.6803 10.1861 21.8623 10.198C20.4353 10.219 19.6057 9.83362 18.946 9.54207L18.432 11.8175C19.0937 12.1061 20.3192 12.3577 21.59 12.3687C24.5728 12.3687 26.5244 10.9758 26.535 8.81621C26.5466 6.07549 22.5273 5.92373 22.5547 4.69865C22.5642 4.32723 22.9389 3.93085 23.7601 3.83001C24.1664 3.77909 25.2884 3.74015 26.5603 4.29428L27.0595 2.09272C26.3756 1.85709 25.4964 1.63144 24.4018 1.63144C21.5942 1.63144 19.6194 3.04324 19.6035 5.06408ZM31.8568 1.82115C31.3121 1.82115 30.853 2.12168 30.6482 2.58296L26.3872 12.2069H29.3679L29.9611 10.6563H33.6036L33.9477 12.2069H36.5748L34.2823 1.82115H31.8568ZM32.2737 4.62676L33.1339 8.52666H30.778L32.2737 4.62676ZM15.9895 1.82115L13.64 12.2069H16.4803L18.8288 1.82115H15.9895ZM11.7876 1.82115L8.83119 8.89009L7.63532 2.87949C7.49494 2.20854 6.94081 1.82115 6.32546 1.82115H1.49236L1.4248 2.12268C2.41697 2.32636 3.54423 2.65484 4.22714 3.00629C4.64511 3.22096 4.76438 3.40867 4.9016 3.91887L7.16668 12.2069H10.1685L14.7704 1.82115H11.7876Z" fill="url(#paint0_linear_1_2290)"/>
<defs>
<linearGradient id="paint0_linear_1_2290" x1="17.5847" y1="12.5841" x2="17.8787" y2="1.55586" gradientUnits="userSpaceOnUse">
<stop stop-color="#222357"/>
<stop offset="1" stop-color="#254AA5"/>
</linearGradient>
</defs>
</svg>
